<svg xmlns="http://www.w3.org/2000/svg" width="18" height="18" viewBox="0 0 4.762 4.762"><path d="M3.267 0l-1.1.918.756.631c.416.347.763.631.774.631.01 0 .25-.198.54-.436.288-.24.526-.45.526-.467 0-.018-.337-.31-.75-.654zm-2.15 1.793l-.556.468L0 2.726l.756.63c.417.348.764.632.774.632.01 0 .255-.198.544-.439.288-.241.522-.46.522-.482 0-.023-.333-.319-.74-.657zm3.44.06l-.43.356-.43.359v.401l.533-.444c.292-.244.532-.46.532-.477 0-.014-.048-.066-.103-.111zM.223 3.313l-.11.095L0 3.5l.756.631c.417.347.764.632.774.632.01 0 .262-.204.557-.45l.544-.454v-.401l-.544.452c-.295.247-.557.45-.574.45-.017 0-.316-.234-.66-.521z" fill="#558dd1"/></svg>