<!DOCTYPE svg PUBLIC "-//W3C//DTD SVG 20010904//EN" "http://www.w3.org/TR/2001/REC-SVG-20010904/DTD/svg10.dtd">
<svg version="1.0" xmlns="http://www.w3.org/2000/svg" width="159px" height="175px" viewBox="0 0 1590 1750" preserveAspectRatio="xMidYMid meet">
<g id="layer101" fill="#5d9bde" stroke="none">
 <path d="M0 875 l0 -875 795 0 795 0 0 875 0 875 -795 0 -795 0 0 -875z"/>
 </g>
<g id="layer102" fill="#212121" stroke="none">
 <path d="M0 875 l0 -875 795 0 795 0 0 875 0 875 -795 0 -795 0 0 -875z m642 678 l158 -158 0 -70 0 -70 -158 158 c-86 86 -162 157 -167 157 -5 0 -92 -82 -192 -182 l-183 -183 -32 33 -33 32 220 220 c121 121 222 220 225 220 3 0 76 -71 162 -157z m-4 -266 c84 -84 152 -160 152 -168 0 -8 -97 -111 -215 -229 l-215 -215 -162 163 -163 162 220 220 c121 121 222 220 225 220 3 0 74 -69 158 -153z m782 -523 c0 -5 -14 -23 -30 -39 l-30 -29 -125 124 -125 125 0 70 0 70 155 -155 c85 -85 155 -160 155 -166z m-153 -106 c84 -84 153 -157 153 -163 0 -6 -98 -108 -218 -228 l-217 -217 -160 160 -160 160 220 220 c121 121 222 220 225 220 3 0 73 -69 157 -152z"/>
 </g>

</svg>